<svg width="23" height="12" viewBox="0 0 23 12" fill="none" xmlns="http://www.w3.org/2000/svg">
<path d="M8.5 11H5.5C4.84339 11 4.19321 10.8707 3.58658 10.6194C2.97995 10.3681 2.42876 9.99983 1.96447 9.53553C1.02678 8.59785 0.5 7.32608 0.5 6C0.5 4.67392 1.02678 3.40215 1.96447 2.46447C2.90215 1.52678 4.17392 1 5.5 1H8.5M14.5 1H17.5C18.1566 1 18.8068 1.12933 19.4134 1.3806C20.02 1.63188 20.5712 2.00017 21.0355 2.46447C21.4998 2.92876 21.8681 3.47996 22.1194 4.08658C22.3707 4.69321 22.5 5.34339 22.5 6C22.5 6.65661 22.3707 7.30679 22.1194 7.91342C21.8681 8.52004 21.4998 9.07124 21.0355 9.53553C20.5712 9.99983 20.02 10.3681 19.4134 10.6194C18.8068 10.8707 18.1566 11 17.5 11H14.5V1Z" stroke="#00091B" stroke-linecap="round" stroke-linejoin="round"/>
</svg>
