<svg width="50" height="50" viewBox="0 0 50 50" fill="none" xmlns="http://www.w3.org/2000/svg">
<path d="M25 2.77778C20.6049 2.77778 16.3084 4.08109 12.654 6.5229C8.99957 8.96471 6.15129 12.4353 4.46935 16.4959C2.7874 20.5565 2.34733 25.0247 3.20477 29.3353C4.06222 33.646 6.17869 37.6057 9.28652 40.7135C12.3944 43.8213 16.354 45.9378 20.6647 46.7952C24.9754 47.6527 29.4435 47.2126 33.5041 45.5307C37.5647 43.8487 41.0353 41.0004 43.4771 37.346C45.9189 33.6916 47.2222 29.3951 47.2222 25C47.2222 19.1063 44.881 13.454 40.7135 9.28652C36.546 5.11904 30.8937 2.77778 25 2.77778V2.77778ZM25 44.4444C21.1543 44.4444 17.3949 43.304 14.1973 41.1675C10.9996 39.0309 8.50738 35.9941 7.03568 32.4411C5.56398 28.8881 5.17891 24.9784 5.92918 21.2066C6.67945 17.4347 8.53135 13.9701 11.2507 11.2507C13.9701 8.53135 17.4347 6.67944 21.2066 5.92918C24.9784 5.17891 28.8881 5.56397 32.4411 7.03568C35.9941 8.50738 39.0309 10.9996 41.1675 14.1972C43.3041 17.3949 44.4445 21.1543 44.4445 25C44.4445 30.157 42.3958 35.1028 38.7493 38.7493C35.1028 42.3958 30.157 44.4444 25 44.4444Z" fill="#19BB69"/>
<path d="M38.8889 16.8056C38.6286 16.5469 38.2766 16.4017 37.9097 16.4017C37.5428 16.4017 37.1908 16.5469 36.9305 16.8056L21.5139 32.1528L13.1805 23.8194C12.9264 23.545 12.5736 23.3828 12.1998 23.3685C11.8261 23.3541 11.4619 23.4889 11.1875 23.743C10.9131 23.9972 10.7508 24.35 10.7365 24.7238C10.7222 25.0975 10.8569 25.4617 11.1111 25.7361L21.5139 36.1111L38.8889 18.7778C39.019 18.6487 39.1224 18.495 39.1929 18.3258C39.2634 18.1565 39.2997 17.975 39.2997 17.7917C39.2997 17.6083 39.2634 17.4268 39.1929 17.2575C39.1224 17.0883 39.019 16.9347 38.8889 16.8056Z" fill="#19BB69"/>
</svg>
